{"title":"My House in Umbria.2003.Xvid.Swe_Sub.avi","uid":5445953,"size":734226432,"categoryP":"video","categoryS":"movies","magnet":"?xt=urn:btih:7a879bbde5104b7372d052df0214b8b2d96aa320&amp;dn=My+House+in+Umbria.2003.Xvid.Swe_Sub.avi&amp;tr=udp%3A%2F%2Ftracker.openbittorrent.com%3A80&amp;tr=udp%3A%2F%2Fopen.demonii.com%3A1337&amp;tr=udp%3A%2F%2Ftracker.coppersurfer.tk%3A6969&amp;tr=udp%3A%2F%2Fexodus.desync.com%3A6969","seeders":0,"leechers":1,"uploader":"Zen_Bud","files":-1,"time":1269015224,"description":"General\nComplete name                    : My House in Umbria.Swe_Sub.avi\nFormat                           : AVI\nFormat/Info                      : Audio Video Interleave\nFile size                        : 700 MiB\nDuration                         : 1h 43mn\nOverall bit rate                 : 950 Kbps\nWriting application              : VirtualDubMod 1.5.4.1 (build 2178/release)\nWriting library                  : VirtualDubMod build 2178/release\n\nVideo\n\nFormat                           : MPEG-4 Visual\nCodec ID                         : XVID\nDuration                         : 1h 43mn\nBit rate                         : 827 Kbps\nWidth                            : 592 pixels\nHeight                           : 336 pixels\nDisplay aspect ratio             : 16:9\nFrame rate                       : 25.000 fps\nResolution                       : 8 bits\nColorimetry                      : 4:2:0\nScan type                        : Progressive\nBits/(Pixel*Frame)               : 0.166\nStream size                      : 609 MiB (87%)\nWriting library                  : XviD 1.2.0.dev47 (UTC 2006-11-01)\n\nAudio\n\nID                               : 1\nFormat                           : MPEG Audio\nCodec ID                         : 55\nCodec ID/Hint                    : MP3\nDuration                         : 1h 43mn\nBit rate mode                    : Variable\nBit rate                         : 111 Kbps\nNominal bit rate                 : 128 Kbps\nChannel(s)                       : 2 channels\nSampling rate                    : 48.0 KHz\nStream size                      : 81.7 MiB (12%)\n\nLanguage                         : English\n\n","torrent":{"xt":"urn:btih:7a879bbde5104b7372d052df0214b8b2d96aa320","amp;dn":"My+House+in+Umbria.2003.Xvid.Swe_Sub.avi","amp;tr":["udp%3A%2F%2Ftracker.openbittorrent.com%3A80","udp%3A%2F%2Fopen.demonii.com%3A1337","udp%3A%2F%2Ftracker.coppersurfer.tk%3A6969","udp%3A%2F%2Fexodus.desync.com%3A6969"],"infoHash":"7a879bbde5104b7372d052df0214b8b2d96aa320","infoHashBuffer":{"type":"Buffer","data":[122,135,155,189,229,16,75,115,114,208,82,223,2,20,184,178,217,106,163,32]},"announce":[],"urlList":[]}}